#!OML:ASF C:\ViconDB\ViconDB\414\Spring2016\041811\Spring2016.ASF
:FULLY-SPECIFIED
:DEGREES
393
root 7.72732 18.0627 -45.1078 -182.53 1.15572 -173.465
lowerback -1.50222 0.392607 2.47724
upperback -0.0326737 0.49857 1.11704
thorax 0.819316 0.268421 -0.233112
lowerneck -12.0267 12.1498 3.44694
upperneck 40.0235 8.35386 11.4936
head 15.844 4.01717 5.32997
rclavicle -9.79014e-015 1.07344e-014
rhumerus -91.1077 38.529 -126.026
rradius 87.0462
rwrist 22.4707
rhand -44.1894 -4.80498
rfingers 7.12502
rthumb -17.0035 -34.0808
lclavicle -9.79014e-015 1.07344e-014
lhumerus -91.1144 -45.2318 126.799
lradius 75.7676
lwrist -19.273
lhand -45.0379 -3.51932
lfingers 7.12502
lthumb -17.8202 25.6842
rfemur 156.939 422.9 -514.811
rtibia 40.0114
rfoot -807.544 -50.4524
rtoes -15.1251
lfemur -28.5263 6.55642 -8.67621
ltibia 72.0971
lfoot -5.2696 -7.95443
ltoes -10.2305
394
root 7.74944 18.0494 -45.3043 -182.692 1.09803 -173.173
lowerback -1.6292 0.598432 2.24098
upperback 0.147983 0.76607 1.10169
thorax 1.07875 0.403053 -0.107698
lowerneck -12.1504 11.9012 3.18705
upperneck 39.9402 7.82858 11.9782
head 15.8205 3.81958 5.50213
rclavicle -1.22998e-014 -1.90833e-014
rhumerus -91.6466 38.8287 -126.767
rradius 86.6813
rwrist 21.6843
rhand -44.5846 -5.13112
rfingers 7.12502
rthumb -17.3839 -34.3737
lclavicle -1.22998e-014 -1.90833e-014
lhumerus -90.3754 -45.4576 125.95
lradius 76.1336
lwrist -20.0921
lhand -44.9548 -3.37446
lfingers 7.12502
lthumb -17.7401 25.8363
rfemur 154.368 425.194 -516.649
rtibia 40.1735
rfoot -810.24 -50.1191
rtoes -14.6103
lfemur -29.9622 6.26078 -8.34292
ltibia 71.1987
lfoot -6.26169 -7.00697
ltoes -9.34829
395
root 7.77124 18.0329 -45.5031 -182.864 1.02738 -172.89
lowerback -1.48073 0.854208 2.15819
upperback 0.0513943 1.11154 0.921686
thorax 0.904984 0.571368 -0.24018
lowerneck -11.7586 11.6339 3.34996
upperneck 39.7372 7.14969 12.3985
head 15.6767 3.58232 5.50337
rclavicle -1.53561e-014 -8.74653e-015
rhumerus -92.336 38.5156 -127.76
rradius 86.3073
rwrist 21.2941
rhand -45.2404 -5.67011
rfingers 7.12502
rthumb -18.015 -34.8558
lclavicle -1.53561e-014 -8.74653e-015
lhumerus -90.4967 -45.6333 125.571
lradius 76.6519
lwrist -20.5229
lhand -42.9634 -4.27076
lfingers 7.12502
lthumb -15.8231 25.1026
rfemur 151.212 427.436 -519.151
rtibia 40.3041
rfoot -812.839 -49.9518
rtoes -12.7875
lfemur -31.262 5.8247 -8.06647
ltibia 69.9859
lfoot -7.44931 -6.16573
ltoes -9.96525
396
root 7.79172 18.0166 -45.7053 -183.001 0.932659 -172.596
lowerback -1.5438 1.05676 2.04835
upperback 0.14201 1.37778 0.85209
thorax 1.03772 0.704347 -0.24121
lowerneck -11.7669 11.3317 3.02092
upperneck 39.5198 6.60017 12.8782
head 15.5645 3.36332 5.66083
rclavicle -1.32689e-014 3.18055e-015
rhumerus -92.7745 38.5757 -128.424
rradius 85.9722
rwrist 20.7534
rhand -45.6428 -6.12031
rfingers 7.12502
rthumb -18.4021 -35.2699
lclavicle -1.32689e-014 3.18055e-015
lhumerus -90.0393 -45.8416 124.912
lradius 77.2166
lwrist -20.6222
lhand -42.1682 -4.38168
lfingers 7.12502
lthumb -15.0572 25.0507
rfemur 147.536 429.693 -522.221
rtibia 40.4109
rfoot -815.595 -49.8436
rtoes -9.96816
lfemur -32.4492 5.32931 -7.77392
ltibia 68.4296
lfoot -8.16105 -5.43768
ltoes -10.5824
397
root 7.81101 17.9975 -45.909 -183.125 0.792271 -172.29
lowerback -1.70568 1.24872 1.8772
upperback 0.304844 1.62875 0.872511
thorax 1.29486 0.83088 -0.11175
lowerneck -12.0852 10.9938 2.36226
upperneck 39.4741 5.95173 13.6054
head 15.5917 3.08288 6.00798
rclavicle -1.1778e-014 -2.54444e-014
rhumerus -93.0983 38.7829 -128.873
rradius 85.7292
rwrist 20.0595
rhand -46.0527 -6.41772
rfingers 7.12502
rthumb -18.7964 -35.5296
lclavicle -1.1778e-014 -2.54444e-014
lhumerus -89.4096 -46.136 124.362
lradius 77.6474
lwrist -20.5312
lhand -42.069 -5.00714
lfingers 7.12502
lthumb -14.9617 24.4324
rfemur 142.811 432.199 -526.379
rtibia 40.4526
rfoot -818.782 -50.0814
rtoes -4.89242
lfemur -33.5027 4.73995 -7.44213
ltibia 66.5671
lfoot -9.05976 -4.69211
ltoes -10.1603
398
root 7.82939 17.9814 -46.1173 -183.204 0.606035 -172.108
lowerback -1.85799 1.40354 1.59557
upperback 0.34618 1.83502 0.813713
thorax 1.419 0.931635 -0.00361623
lowerneck -11.9671 10.6913 2.13567
upperneck 39.2359 5.42473 13.9636
head 15.4664 2.86484 6.09169
rclavicle 1.56543e-014 -1.74931e-014
rhumerus -93.4669 38.779 -129.366
rradius 85.435
rwrist 19.7339
rhand -46.4011 -6.81848
rfingers 7.12502
rthumb -19.1314 -35.8975
lclavicle 1.56543e-014 -1.74931e-014
lhumerus -89.0986 -46.2479 123.9
lradius 77.9812
lwrist -21.1134
lhand -41.9958 -5.09692
lfingers 7.12502
lthumb -14.8911 24.3479
rfemur 136.578 434.759 -532.258
rtibia 40.5072
rfoot -822.522 -49.4966
rtoes -2.99953
lfemur -34.4114 4.11553 -7.26705
ltibia 64.3935
lfoot -9.89745 -4.16073
ltoes -9.91234
399
root 7.84662 17.9693 -46.3296 -183.216 0.434592 -171.906
lowerback -2.24002 1.47752 1.18426
upperback 0.62726 1.93175 0.94154
thorax 1.90469 0.97842 0.376479
lowerneck -12.451 10.4286 1.55623
upperneck 39.0966 5.11171 14.3261
head 15.4872 2.72701 6.32714
rclavicle -1.98785e-016 -1.43125e-014
rhumerus -93.6364 39.4276 -129.573
rradius 85.171
rwrist 19.3251
rhand -46.909 -7.25122
rfingers 7.12502
rthumb -19.6198 -36.2812
lclavicle -1.98785e-016 -1.43125e-014
lhumerus -87.8916 -46.2741 122.992
lradius 78.2619
lwrist -21.6709
lhand -42.4296 -4.80982
lfingers 7.12502
lthumb -15.309 24.6036
rfemur 130.121 436.495 -538.516
rtibia 40.4043
rfoot -824.836 -48.6974
rtoes -2.96078
lfemur -35.3108 3.33363 -6.99542
ltibia 61.9181
lfoot -10.7877 -3.9199
ltoes -10.3679
400
root 7.86003 17.9437 -46.5436 -183.152 0.198215 -171.684
lowerback -2.45475 1.62903 1.07977
upperback 0.45308 2.11637 0.75386
thorax 1.8504 1.06048 0.252985
lowerneck -12.1153 10.238 1.61727
upperneck 38.9973 4.50334 14.8478
head 15.4184 2.49591 6.42078
rclavicle -2.03754e-014 2.38542e-015
rhumerus -94.045 39.0541 -130.215
rradius 84.885
rwrist 19.3107
rhand -47.2846 -7.29853
rfingers 7.12502
rthumb -19.9809 -36.2913
lclavicle -2.03754e-014 2.38542e-015
lhumerus -87.9803 -46.2504 122.619
lradius 78.6204
lwrist -22.2922
lhand -41.6147 -4.72
lfingers 7.12502
lthumb -14.524 24.7516
rfemur 122.48 437.959 -545.96
rtibia 40.3062
rfoot -826.859 -47.9195
rtoes -2.94238
lfemur -36.1646 2.46584 -6.75339
ltibia 59.3242
lfoot -11.5663 -3.71163
ltoes -10.5219
401
root 7.87684 17.9492 -46.7596 -183.095 -0.0277747 -171.345
lowerback -2.75734 1.76013 1.058
upperback 0.448603 2.28929 0.690791
thorax 2.01803 1.14767 0.217983
lowerneck -11.6691 10.0877 2.21617
upperneck 38.4793 4.28029 14.6924
head 15.1327 2.47829 6.13925
rclavicle -4.47266e-016 5.1684e-014
rhumerus -94.1661 38.9798 -130.533
rradius 84.6695
rwrist 19.0191
rhand -47.3966 -7.50586
rfingers 7.12502
rthumb -20.0885 -36.4873
lclavicle -4.47266e-016 5.1684e-014
lhumerus -87.7996 -46.3744 122.301
lradius 78.9208
lwrist -22.6473
lhand -41.4359 -4.65638
lfingers 7.12502
lthumb -14.3517 24.8275
rfemur 114.158 438.943 -554.104
rtibia 40.003
rfoot -828.426 -47.2526
rtoes -2.72668
lfemur -36.7763 1.72327 -6.3913
ltibia 56.413
lfoot -12.3645 -3.82161
ltoes -11.8731
402
root 7.88974 17.9367 -46.9731 -183.003 -0.244907 -171.234
lowerback -3.04461 1.93807 0.870438
upperback 0.462827 2.534 0.56727
thorax 2.19239 1.26956 0.218573
lowerneck -11.6421 9.89068 2.39228
upperneck 38.2393 3.90644 14.8484
head 15.0622 2.36776 6.10254
rclavicle 7.00716e-015 5.56597e-014
rhumerus -94.1241 38.8628 -130.599
rradius 84.6441
rwrist 18.0253
rhand -47.3343 -7.03423
rfingers 7.12502
rthumb -20.0287 -36.022
lclavicle 7.00716e-015 5.56597e-014
lhumerus -87.5544 -46.6254 122.049
lradius 79.23
lwrist -22.7101
lhand -41.2662 -4.79128
lfingers 7.12502
lthumb -14.1882 24.7042
rfemur 106.207 439.432 -562.082
rtibia 39.7219
rfoot -829.605 -46.8644
rtoes -2.05324
lfemur -37.3586 0.903279 -6.22562
ltibia 53.4167
lfoot -12.7842 -4.00068
ltoes -11.337
403
root 7.90221 17.9336 -47.1857 -182.895 -0.444732 -171.15
lowerback -3.31524 1.9905 0.54933
upperback 0.415408 2.61701 0.493529
thorax 2.28481 1.30792 0.335743
lowerneck -12.0708 9.70089 1.62795
upperneck 38.5388 3.3434 15.6897
head 15.3081 2.08882 6.57936
rclavicle -7.60351e-015 -1.90833e-014
rhumerus -94.4225 38.9544 -130.998
rradius 84.3083
rwrist 18.4924
rhand -47.6538 -7.64387
rfingers 7.12502
rthumb -20.3357 -36.5992
lclavicle -7.60351e-015 -1.90833e-014
lhumerus -87.0615 -46.4696 121.413
lradius 79.495
lwrist -23.2705
lhand -41.1417 -4.75794
lfingers 7.12502
lthumb -14.0682 24.7459
rfemur 99.7143 439.518 -568.728
rtibia 39.262
rfoot -830.263 -46.4465
rtoes -1.81777
lfemur -37.7292 0.0182069 -6.03369
ltibia 50.2333
lfoot -12.7575 -4.33413
ltoes -11.3483
404
root 7.91012 17.9179 -47.3985 -182.79 -0.601651 -171.068
lowerback -3.56548 2.09415 0.321694
upperback 0.369197 2.7663 0.398538
thorax 2.37152 1.38026 0.382414
lowerneck -12.1373 9.48582 1.12584
upperneck 38.4451 2.86173 16.362
head 15.2948 1.87423 6.88997
rclavicle -1.62506e-014 -6.36111e-014
rhumerus -94.8294 39.0025 -131.444
rradius 84.1799
rwrist 18.6124
rhand -48.0174 -8.01573
rfingers 7.12502
rthumb -20.6851 -36.9334
lclavicle -1.62506e-014 -6.36111e-014
lhumerus -86.6735 -46.4507 120.973
lradius 79.6944
lwrist -23.5106
lhand -40.8254 -4.74901
lfingers 7.12502
lthumb -13.7633 24.7758
rfemur 95.1054 439.27 -573.475
rtibia 38.7808
rfoot -830.522 -46.4051
rtoes -0.598508
lfemur -37.997 -0.832928 -5.79416
ltibia 47.1289
lfoot -12.7877 -5.07612
ltoes -10.7656
405
root 7.91807 17.9127 -47.6028 -182.602 -0.749743 -170.424
lowerback -3.81426 2.21586 0.671976
upperback 0.279648 2.90717 0.469122
thorax 2.43246 1.45332 0.275643
lowerneck -12.0413 9.28986 0.979674
upperneck 38.2401 2.50921 16.663
head 15.2051 1.73064 6.97192
rclavicle -4.37326e-015 6.36111e-015
rhumerus -95.1746 38.9988 -131.836
rradius 84.1625
rwrist 18.1911
rhand -47.9828 -8.32132
rfingers 7.12502
rthumb -20.6519 -37.2426
lclavicle -4.37326e-015 6.36111e-015
lhumerus -86.2898 -46.4225 120.558
lradius 79.9776
lwrist -23.721
lhand -41.3993 -4.39165
lfingers 7.12502
lthumb -14.3164 25.0948
rfemur 93.2364 438.911 -574.893
rtibia 38.2238
rfoot -830.224 -46.257
rtoes -0.106812
lfemur -38.4142 -1.48868 -4.90081
ltibia 43.994
lfoot -12.3694 -5.82948
ltoes -10.582
406
root 7.92596 17.8976 -47.814 -182.376 -1.11259 -169.916
lowerback -4.15598 2.29955 0.950783
upperback 0.164154 3.00044 0.444152
thorax 2.52124 1.50224 0.112296
lowerneck -11.5023 9.23652 1.75618
upperneck 37.7299 2.45103 16.3968
head 14.8896 1.78917 6.62258
rclavicle -2.41523e-014 -2.70347e-014
rhumerus -95.361 38.8186 -132.175
rradius 83.9641
rwrist 18.0273
rhand -48.033 -8.34842
rfingers 7.12502
rthumb -20.7001 -37.2645
lclavicle -2.41523e-014 -2.70347e-014
lhumerus -85.9769 -46.4882 120.128
lradius 80.1181
lwrist -24.4901
lhand -41.2096 -4.08935
lfingers 7.12502
lthumb -14.1336 25.4099
rfemur 89.0427 438.74 -578.821
rtibia 37.6371
rfoot -830.559 -46.5209
rtoes 2.254
lfemur -38.9057 -2.27677 -4.17797
ltibia 41.0253
lfoot -12.1199 -6.65468
ltoes -11.0067
